<svg xmlns="http://www.w3.org/2000/svg" version="1.1" xmlns:xlink="http://www.w3.org/1999/xlink" xmlns:svgjs="http://svgjs.dev/svgjs" width="1500" height="1500" viewBox="0 0 1500 1500"><rect width="1500" height="1500" fill="#dedede"></rect><g transform="matrix(0.6666666666666666,0,0,0.6666666666666666,249.39393939393938,653.8531587223212)"><svg viewBox="0 0 396 76" data-background-color="#dedede" preserveAspectRatio="xMidYMid meet" height="287" width="1500" xmlns="http://www.w3.org/2000/svg" xmlns:xlink="http://www.w3.org/1999/xlink"><g id="tight-bounds" transform="matrix(1,0,0,1,0.2400000000000091,0.19073137859021472)"><svg viewBox="0 0 395.52 75.61853724281957" height="75.61853724281957" width="395.52"><g><svg viewBox="0 0 495.1544075676328 94.66740495954517" height="75.61853724281957" width="395.52"><g transform="matrix(1,0,0,1,99.6344075676328,13.08355596763613)"><svg viewBox="0 0 395.52 68.5002930242729" height="68.5002930242729" width="395.52"><g id="textblocktransform"><svg viewBox="0 0 395.52 68.5002930242729" height="68.5002930242729" width="395.52" id="textblock"><g><svg viewBox="0 0 395.52 68.5002930242729" height="68.5002930242729" width="395.52"><g transform="matrix(1,0,0,1,0,0)"><svg width="395.52" viewBox="5 -39 228.63 39.6" height="68.5002930242729" data-palette-color="#374151"><g class="wordmark-text-0" data-fill-palette-color="primary" id="text-0"><path d="M5-34.45L9.75-34.45 9.75 0 5 0 5-34.45ZM35.3-37.5L39.9-36.95 39.9 0 35.85 0 35.4-3.65Q34.1-1.65 32.15-0.53 30.2 0.6 27.8 0.6L27.8 0.6Q23.1 0.6 20.47-3.1 17.85-6.8 17.85-13.05L17.85-13.05Q17.85-17.1 19.1-20.25 20.35-23.4 22.7-25.18 25.05-26.95 28.2-26.95L28.2-26.95Q32.25-26.95 35.3-23.7L35.3-23.7 35.3-37.5ZM28.8-3.05Q30.9-3.05 32.4-4.03 33.9-5 35.3-6.95L35.3-6.95 35.3-19.85Q34-21.55 32.52-22.43 31.05-23.3 29.2-23.3L29.2-23.3Q26.15-23.3 24.47-20.75 22.8-18.2 22.8-13.15L22.8-13.15Q22.8-8.05 24.35-5.55 25.9-3.05 28.8-3.05L28.8-3.05ZM69.3-13.95Q69.3-12.8 69.2-11.6L69.2-11.6 52.4-11.6Q52.7-7.25 54.6-5.2 56.5-3.15 59.5-3.15L59.5-3.15Q61.4-3.15 63-3.7 64.59-4.25 66.34-5.45L66.34-5.45 68.34-2.7Q64.15 0.6 59.15 0.6L59.15 0.6Q53.65 0.6 50.57-3 47.5-6.6 47.5-12.9L47.5-12.9Q47.5-17 48.82-20.18 50.15-23.35 52.62-25.15 55.1-26.95 58.45-26.95L58.45-26.95Q63.7-26.95 66.5-23.5 69.3-20.05 69.3-13.95L69.3-13.95ZM64.75-15L64.75-15.3Q64.75-19.2 63.2-21.25 61.65-23.3 58.55-23.3L58.55-23.3Q52.9-23.3 52.4-15L52.4-15 64.75-15ZM89.04-26.95Q92.64-26.95 94.67-24.8 96.69-22.65 96.69-18.9L96.69-18.9 96.69 0 92.09 0 92.09-18.25Q92.09-21.05 91.04-22.2 89.99-23.35 87.94-23.35L87.94-23.35Q85.84-23.35 84.24-22.15 82.64-20.95 81.24-18.7L81.24-18.7 81.24 0 76.64 0 76.64-26.35 80.59-26.35 80.99-22.45Q82.39-24.55 84.47-25.75 86.54-26.95 89.04-26.95L89.04-26.95ZM117.49-4.25L119.24-1.2Q116.64 0.6 113.34 0.6L113.34 0.6Q109.99 0.6 108.12-1.33 106.24-3.25 106.24-6.9L106.24-6.9 106.24-22.8 101.64-22.8 101.64-26.35 106.24-26.35 106.24-32.3 110.84-32.85 110.84-26.35 117.09-26.35 116.59-22.8 110.84-22.8 110.84-7.1Q110.84-5.05 111.57-4.13 112.29-3.2 113.99-3.2L113.99-3.2Q115.54-3.2 117.49-4.25L117.49-4.25ZM123.99-26.35L128.59-26.35 128.59 0 123.99 0 123.99-26.35ZM126.24-39Q127.69-39 128.59-38.1 129.49-37.2 129.49-35.85L129.49-35.85Q129.49-34.5 128.59-33.63 127.69-32.75 126.24-32.75L126.24-32.75Q124.84-32.75 123.94-33.63 123.04-34.5 123.04-35.85L123.04-35.85Q123.04-37.2 123.94-38.1 124.84-39 126.24-39L126.24-39ZM143.09 0L138.34 0 138.34-34.45 156.64-34.45 156.09-30.65 143.09-30.65 143.09-18.9 154.34-18.9 154.34-15.15 143.09-15.15 143.09 0ZM180.38-6.15Q180.38-4.55 180.93-3.78 181.48-3 182.58-2.6L182.58-2.6 181.53 0.6Q179.48 0.35 178.23-0.55 176.98-1.45 176.38-3.35L176.38-3.35Q173.73 0.6 168.53 0.6L168.53 0.6Q164.63 0.6 162.38-1.6 160.13-3.8 160.13-7.35L160.13-7.35Q160.13-11.55 163.16-13.8 166.18-16.05 171.73-16.05L171.73-16.05 175.78-16.05 175.78-18Q175.78-20.8 174.43-22 173.08-23.2 170.28-23.2L170.28-23.2Q167.38-23.2 163.18-21.8L163.18-21.8 162.03-25.15Q166.93-26.95 171.13-26.95L171.13-26.95Q175.78-26.95 178.08-24.68 180.38-22.4 180.38-18.2L180.38-18.2 180.38-6.15ZM169.58-2.85Q173.53-2.85 175.78-6.95L175.78-6.95 175.78-13 172.33-13Q165.03-13 165.03-7.6L165.03-7.6Q165.03-5.25 166.18-4.05 167.33-2.85 169.58-2.85L169.58-2.85ZM199.43-26.95Q201.78-26.95 203.73-26.28 205.68-25.6 207.48-24.1L207.48-24.1 205.28-21.2Q203.88-22.2 202.56-22.68 201.23-23.15 199.63-23.15L199.63-23.15Q196.43-23.15 194.66-20.6 192.88-18.05 192.88-13.05L192.88-13.05Q192.88-8.05 194.63-5.68 196.38-3.3 199.63-3.3L199.63-3.3Q201.18-3.3 202.48-3.78 203.78-4.25 205.38-5.3L205.38-5.3 207.48-2.3Q203.88 0.6 199.43 0.6L199.43 0.6Q194.08 0.6 191.01-3 187.93-6.6 187.93-12.95L187.93-12.95Q187.93-17.15 189.33-20.3 190.73-23.45 193.31-25.2 195.88-26.95 199.43-26.95L199.43-26.95ZM233.63-13.95Q233.63-12.8 233.53-11.6L233.53-11.6 216.73-11.6Q217.03-7.25 218.93-5.2 220.83-3.15 223.83-3.15L223.83-3.15Q225.73-3.15 227.33-3.7 228.93-4.25 230.68-5.45L230.68-5.45 232.68-2.7Q228.48 0.6 223.48 0.6L223.48 0.6Q217.98 0.6 214.9-3 211.83-6.6 211.83-12.9L211.83-12.9Q211.83-17 213.15-20.18 214.48-23.35 216.95-25.15 219.43-26.95 222.78-26.95L222.78-26.95Q228.03-26.95 230.83-23.5 233.63-20.05 233.63-13.95L233.63-13.95ZM229.08-15L229.08-15.3Q229.08-19.2 227.53-21.25 225.98-23.3 222.88-23.3L222.88-23.3Q217.23-23.3 216.73-15L216.73-15 229.08-15Z" fill="#374151" data-fill-palette-color="primary"></path></g></svg></g></svg></g></svg></g></svg></g><g><svg viewBox="0 0 83.46313239163456 94.66740495954517" height="94.66740495954517" width="83.46313239163456"><g><svg xmlns="http://www.w3.org/2000/svg" xmlns:xlink="http://www.w3.org/1999/xlink" version="1.1" x="0" y="0" viewBox="6.5500000000000025 2.953 35.503 40.269" enable-background="new 0 0 50 50" xml:space="preserve" height="94.66740495954517" width="83.46313239163456" class="icon-icon-0" data-fill-palette-color="accent" id="icon-0"><g fill="#374151" data-fill-palette-color="accent"><path fill="#374151" d="M19.847 20.955c0-2.915-2.371-5.285-5.286-5.285s-5.285 2.368-5.285 5.285c0 2.915 2.371 5.285 5.285 5.285S19.847 23.87 19.847 20.955zM11.892 20.955c0-1.469 1.198-2.669 2.669-2.669s2.669 1.198 2.669 2.669c0 1.474-1.198 2.669-2.669 2.669S11.892 22.429 11.892 20.955z" data-fill-palette-color="accent"></path><path fill="#374151" d="M25 30.585c-3.028 0-5.876 1.183-8.022 3.332-2.125 2.152-3.3 4.991-3.3 7.987v1.318h2.616v-0.01H33.7v0.01h2.616v-1.318C36.316 35.664 31.237 30.585 25 30.585zM18.831 35.762c1.647-1.651 3.836-2.561 6.166-2.561 4.35 0 7.93 3.221 8.566 7.396H16.417C16.697 38.783 17.509 37.095 18.831 35.762z" data-fill-palette-color="accent"></path><path fill="#374151" d="M33.608 15.648c-2.915 0-5.285 2.371-5.285 5.289 0 2.915 2.37 5.283 5.285 5.283 2.914 0 5.285-2.368 5.285-5.283C38.894 18.02 36.522 15.648 33.608 15.648zM33.608 23.604c-1.472 0-2.67-1.199-2.67-2.667 0-1.472 1.198-2.672 2.67-2.672 1.471 0 2.669 1.199 2.669 2.672C36.277 22.409 35.079 23.604 33.608 23.604z" data-fill-palette-color="accent"></path><path fill="#374151" d="M14.986 11.625c1.977 0 3.841 0.777 5.249 2.18 0.374 0.375 0.692 0.784 0.954 1.215l2.24-1.349c-0.368-0.613-0.82-1.192-1.346-1.716-1.904-1.9-4.424-2.945-7.099-2.945-3.469 0-6.622 1.737-8.434 4.644l2.221 1.384C10.101 12.9 12.426 11.625 14.986 11.625z" data-fill-palette-color="accent"></path><path fill="#374151" d="M33.61 2.953c-3.469 0-6.621 1.737-8.435 4.642l2.222 1.385c1.332-2.136 3.653-3.414 6.213-3.414 1.978 0 3.842 0.774 5.25 2.179 0.373 0.374 0.692 0.782 0.953 1.214l2.24-1.346c-0.368-0.616-0.82-1.193-1.347-1.717C38.807 3.998 36.285 2.953 33.61 2.953z" data-fill-palette-color="accent"></path></g></svg></g></svg></g></svg></g><defs></defs></svg><rect width="395.52" height="75.61853724281957" fill="none" stroke="none" visibility="hidden"></rect></g></svg></g></svg>